<svg xmlns="http://www.w3.org/2000/svg" xmlns:xlink="http://www.w3.org/1999/xlink" id="Capa_1" x="0px" y="0px" viewBox="0 0 350 100" style="enable-background:new 0 0 350 100;" xml:space="preserve"><style type="text/css">	.st0{fill:#00388A;}	.st1{fill:#FFFFFF;}	.st2{fill:#383838;}	.st3{fill:#2C3480;}	.st4{fill:#002883;}	.st5{fill:#001C56;}	.st6{fill:url(#SVGID_1_);}	.st7{fill:url(#SVGID_00000103973821491300391780000016430543009384503216_);}	.st8{fill:url(#SVGID_00000154407589232289638270000008467110080084810129_);}	.st9{fill:url(#SVGID_00000026845109975464239920000010421624404364427168_);}	.st10{fill:url(#SVGID_00000129891480359310601450000006333516891505235132_);}	.st11{fill:url(#SVGID_00000059298185394363016920000014699471179055450778_);}	.st12{fill:url(#SVGID_00000096056944943197188000000013999247141987444660_);}	.st13{fill:url(#SVGID_00000159431712960808370360000007970361140177334971_);}	.st14{fill:url(#SVGID_00000171715000125417510720000014760135064847320219_);}	.st15{fill:url(#SVGID_00000072986994438388676380000011439619181715185080_);}	.st16{fill:url(#SVGID_00000054952333386889008490000015971721759900111785_);}	.st17{fill:url(#SVGID_00000055694767623038373470000016821839962542589114_);}	.st18{fill:url(#SVGID_00000066507650205775694730000004787499429124006282_);}	.st19{fill:url(#SVGID_00000005984150798876970990000004082797443729895829_);}	.st20{fill:url(#SVGID_00000080890423671347529610000003823848451747171758_);}	.st21{fill:url(#SVGID_00000047775183787641258240000000362770431587351200_);}	.st22{fill:url(#SVGID_00000040546737893429490600000009188021967615534253_);}	.st23{fill:url(#SVGID_00000027576819214220229700000003293771147908811158_);}	.st24{fill:url(#SVGID_00000168808404412540037590000002496863223789362878_);}	.st25{fill:url(#SVGID_00000062898873637824947760000013414126287364123812_);}	.st26{fill:url(#SVGID_00000056399755101939766570000008830925381967025560_);}	.st27{fill:url(#SVGID_00000067209941852062098990000015003686903479541432_);}	.st28{fill:url(#SVGID_00000039102629277300812550000002420263410135692419_);}	.st29{fill:url(#SVGID_00000146458851586371111330000009733843626826805164_);}	.st30{fill:url(#SVGID_00000122722665419573993490000004347976638301376898_);}	.st31{fill:url(#SVGID_00000067231827252089517770000011230111669240608647_);}	.st32{fill:url(#SVGID_00000047761230992614895160000012386909909810074508_);}	.st33{fill:url(#SVGID_00000029733571558055924840000002143666994564453794_);}	.st34{fill:url(#SVGID_00000180360046934501514880000013831112719810295959_);}	.st35{fill:url(#SVGID_00000058582481582359293510000003659870782014875548_);}	.st36{fill:url(#SVGID_00000176003091928277013560000005842212263791014067_);}	.st37{fill:url(#SVGID_00000174601248895389080340000001171890417644759688_);}	.st38{fill:url(#SVGID_00000005254796626847751280000007610145270031247520_);}	.st39{fill:url(#SVGID_00000133490489319399892170000018146890613475150498_);}	.st40{fill:#02358E;}	.st41{fill:url(#SVGID_00000182488022795657541310000015539357406946759346_);}</style><g>	<g>		<g>			<g>				<path class="st5" d="M95,61.79c0.2,0,0.3,0.07,0.3,0.29v1.22c0,0.22-0.1,0.29-0.3,0.29H83.62c-1.6,0-2.11,0.59-2.11,1.66v0.44     c0,1,0.52,1.61,2.11,1.61h8.51c2.75,0,3.74,1.12,3.74,3.05v1.15c0,2.17-0.91,3.3-3.74,3.3H79.63c-0.22,0-0.3-0.1-0.3-0.29v-1.25     c0-0.2,0.07-0.29,0.3-0.29h11.95c1.6,0,2.11-0.54,2.11-1.81v-0.73c0-0.95-0.52-1.56-2.11-1.56h-8.51c-2.75,0-3.74-1.12-3.74-3.1     v-0.85c0-1.95,0.91-3.12,3.74-3.12H95z"/>				<path class="st5" d="M113.53,61.79c4.33,0,5.73,1.34,5.73,4.78v3.42c0,3.44-1.4,4.81-5.73,4.81h-6.81     c-4.33,0-5.73-1.37-5.73-4.81v-3.42c0-3.44,1.4-4.78,5.73-4.78H113.53z M103.21,69.65c0,2.44,0.84,3.3,3.71,3.3h6.42     c2.85,0,3.71-0.85,3.71-3.3v-2.73c0-2.44-0.86-3.3-3.71-3.3h-6.42c-2.88,0-3.71,0.85-3.71,3.3V69.65z"/>				<path class="st5" d="M126.73,56.49c0.25,0,0.34,0.12,0.34,0.34v17.62c0,0.22-0.1,0.34-0.34,0.34h-1.5     c-0.25,0-0.37-0.12-0.37-0.34V56.83c0-0.22,0.12-0.34,0.37-0.34H126.73z"/>				<path class="st5" d="M134.71,61.79c0.22,0,0.34,0.1,0.34,0.34v7.4c0,2.44,0.76,3.3,3.61,3.3h6.42c2.85,0,3.71-0.85,3.71-3.3     v-7.4c0-0.24,0.1-0.34,0.34-0.34h1.5c0.25,0,0.37,0.1,0.37,0.34v7.86c0,3.44-1.4,4.81-5.73,4.81h-6.71     c-4.33,0-5.73-1.37-5.73-4.81v-7.86c0-0.24,0.12-0.34,0.34-0.34H134.71z"/>				<path class="st5" d="M171.68,61.79c0.2,0,0.3,0.07,0.3,0.29v1.29c0,0.2-0.1,0.29-0.3,0.29h-9.61c-2.88,0-3.71,0.83-3.71,3.3     v2.66c0,2.44,0.84,3.3,3.71,3.3h9.61c0.2,0,0.3,0.1,0.3,0.29v1.29c0,0.2-0.1,0.29-0.3,0.29h-9.81c-4.35,0-5.73-1.37-5.73-4.81     v-3.42c0-3.44,1.38-4.78,5.73-4.78H171.68z"/>				<path class="st5" d="M178.91,57.03c0.22,0,0.34,0.12,0.34,0.37v2.22c0,0.22-0.12,0.34-0.34,0.34h-1.52     c-0.22,0-0.34-0.12-0.34-0.34v-2.22c0-0.24,0.12-0.37,0.34-0.37H178.91z M178.91,61.79c0.25,0,0.34,0.1,0.34,0.34v12.33     c0,0.22-0.1,0.34-0.34,0.34h-1.5c-0.25,0-0.37-0.12-0.37-0.34V62.13c0-0.24,0.12-0.34,0.37-0.34H178.91z"/>				<path class="st5" d="M197.42,61.79c4.33,0,5.73,1.34,5.73,4.78v3.42c0,3.44-1.4,4.81-5.73,4.81h-6.81     c-4.33,0-5.73-1.37-5.73-4.81v-3.42c0-3.44,1.4-4.78,5.73-4.78H197.42z M187.09,69.65c0,2.44,0.84,3.3,3.71,3.3h6.42     c2.85,0,3.71-0.85,3.71-3.3v-2.73c0-2.44-0.86-3.3-3.71-3.3h-6.42c-2.88,0-3.71,0.85-3.71,3.3V69.65z"/>				<path class="st5" d="M221.28,61.79c4.33,0,5.73,1.37,5.73,4.78v7.89c0,0.22-0.12,0.34-0.37,0.34h-1.5     c-0.25,0-0.34-0.12-0.34-0.34v-7.4c0-2.44-0.76-3.3-3.64-3.3h-6.59c-2.88,0-3.71,0.85-3.71,3.3v7.4c0,0.22-0.12,0.34-0.34,0.34     h-1.52c-0.22,0-0.34-0.12-0.34-0.34v-7.89c0-3.42,1.4-4.78,5.73-4.78H221.28z"/>				<path class="st5" d="M244.95,61.79c3.29,0,4.18,1,4.18,3.88v2c0,1-0.44,1.34-1.38,1.34H234.4v0.9c0,2.15,0.84,3,3.69,3h10.33     c0.2,0,0.3,0.1,0.3,0.29v1.29c0,0.2-0.1,0.29-0.3,0.29H237.9c-4.33,0-5.7-1.37-5.7-4.81v-3.42c0-3.44,1.38-4.78,5.7-4.78H244.95     z M234.4,67.55h11.95c0.39,0,0.59-0.15,0.59-0.56v-1.27c0-1.61-0.52-2.2-2.36-2.2h-6.49c-2.85,0-3.69,0.85-3.69,3.03V67.55z"/>				<path class="st5" d="M269.8,61.79c0.2,0,0.3,0.07,0.3,0.29v1.22c0,0.22-0.1,0.29-0.3,0.29h-11.38c-1.6,0-2.11,0.59-2.11,1.66     v0.44c0,1,0.52,1.61,2.11,1.61h8.51c2.75,0,3.74,1.12,3.74,3.05v1.15c0,2.17-0.91,3.3-3.74,3.3h-12.49c-0.22,0-0.3-0.1-0.3-0.29     v-1.25c0-0.2,0.07-0.29,0.3-0.29h11.95c1.6,0,2.11-0.54,2.11-1.81v-0.73c0-0.95-0.52-1.56-2.11-1.56h-8.51     c-2.75,0-3.74-1.12-3.74-3.1v-0.85c0-1.95,0.91-3.12,3.74-3.12H269.8z"/>			</g>		</g>		<path class="st5" d="M90.18,19.6v2.14c0,2.33,1.21,3.52,3.69,3.52h28.79c8.14,0,12.39,3.89,12.39,10.8v5.02   c0,6.09-3.96,10.24-12.53,10.24H81.04c-1.06,0-1.64-0.44-1.64-1.38v-5.97c0-0.94,0.58-1.38,1.64-1.38h39.41   c2.69,0,3.75-1.32,3.75-3.51V36.5c0-2.33-1.2-3.52-3.68-3.52H91.74c-8.15,0-12.4-3.9-12.4-10.8V17.6   c0-6.09,3.96-10.23,12.54-10.23h46.37c0.68,0,1.18,0.64,1.01,1.3l-1.72,6.64c-0.12,0.46-0.53,0.78-1.01,0.78H93.93   C91.24,16.09,90.18,17.41,90.18,19.6z"/>		<path class="st5" d="M151.11,8.49l-1.8,6.93c-0.1,0.39-0.46,0.67-0.86,0.67l-7.43,0.01c-0.58,0-1.01-0.55-0.87-1.12l1.8-6.94   c0.1-0.39,0.46-0.67,0.86-0.67h7.43C150.83,7.37,151.26,7.92,151.11,8.49z"/>		<path class="st5" d="M270.66,8.75v25.99c0,12.05-5.46,16.58-19.84,16.58h-22.26c-0.68,0-1.18-0.64-1.01-1.3l1.76-6.83   c0.12-0.46,0.53-0.78,1.01-0.78h20.14c7.3,0,9.36-1.95,9.36-8.6V8.75c0-0.94,0.56-1.38,1.63-1.38h7.65   C270.16,7.37,270.66,7.81,270.66,8.75z"/>		<path class="st5" d="M148.4,18.55h-7.78c-0.73,0-1.32,0.55-1.32,1.23v30.15c0,0.94,0.57,1.38,1.63,1.38h7.23   c1.06,0,1.56-0.44,1.56-1.38V19.78C149.72,19.1,149.13,18.55,148.4,18.55z"/>		<g>			<path class="st5" d="M227.94,13.9v27.5c0,0.09-0.01,0.18-0.03,0.26l-2.3,8.87c-0.12,0.46-0.54,0.78-1.01,0.78h-5.51    c-1.06,0-1.56-0.44-1.56-1.39V16.71c0-0.44-0.13-0.63-0.57-0.63h-0.63c-0.5,0-0.79,0.13-0.92,0.51l-14.32,28.56    c-2.34,4.52-4.33,6.16-9.07,6.16h-2.96c-4.74,0-6.73-1.64-9.07-6.16l-14.32-28.56c-0.13-0.38-0.42-0.51-0.92-0.51h-0.63    c-0.43,0-0.57,0.19-0.57,0.63v33.22c0,0.94-0.5,1.39-1.56,1.39h-7.85c-0.16,0-0.31-0.04-0.45-0.1c-0.36-0.17-0.56-0.55-0.56-0.94    V13.9c0-4.77,1.27-6.53,6.23-6.53h7.58c4.17,0,5.59,0.82,7.51,4.77l14.74,30.13c0.21,0.44,0.5,0.57,1,0.57h0.67    c0.5,0,0.79-0.12,1-0.57l14.74-30.13c1.92-3.95,3.33-4.77,7.51-4.77h7.58C226.67,7.37,227.94,9.13,227.94,13.9z"/>		</g>	</g>	<g>		<path class="st5" d="M81.59,78.61c0.27,0,0.41,0.14,0.41,0.41v1.77c0,0.29-0.14,0.43-0.41,0.43h-1.83c-0.29,0-0.43-0.14-0.43-0.43   v-1.77c0-0.27,0.14-0.41,0.43-0.41H81.59z M81.59,82.4c0.27,0,0.41,0.14,0.41,0.43v9.39c0,0.27-0.14,0.41-0.41,0.41h-1.83   c-0.27,0-0.41-0.14-0.41-0.41v-9.39c0-0.29,0.14-0.43,0.41-0.43H81.59z"/>		<path class="st5" d="M94.1,82.4c0.83,0,1.53,0.07,2.11,0.21c0.57,0.14,1.03,0.37,1.37,0.67c0.34,0.3,0.59,0.7,0.74,1.17   c0.15,0.48,0.22,1.05,0.22,1.72v6.04c0,0.27-0.14,0.41-0.41,0.41H96.3c-0.27,0-0.41-0.14-0.41-0.41v-5.41   c0-0.38-0.03-0.71-0.07-0.98c-0.05-0.27-0.15-0.48-0.29-0.63c-0.14-0.16-0.34-0.27-0.59-0.34c-0.25-0.07-0.57-0.1-0.97-0.1h-4.96   c-0.4,0-0.73,0.03-0.99,0.1c-0.26,0.07-0.47,0.18-0.62,0.34c-0.16,0.16-0.26,0.37-0.33,0.63c-0.06,0.27-0.09,0.59-0.09,0.98v5.41   c0,0.27-0.14,0.41-0.41,0.41h-1.83c-0.29,0-0.43-0.14-0.43-0.41v-6.04c0-0.67,0.07-1.25,0.22-1.72c0.15-0.48,0.39-0.87,0.74-1.17   c0.34-0.3,0.8-0.53,1.36-0.67c0.57-0.14,1.27-0.21,2.12-0.21H94.1z"/>		<path class="st5" d="M102.12,82.4v-0.39c0-0.66,0.06-1.22,0.17-1.69c0.11-0.47,0.31-0.85,0.6-1.15c0.29-0.3,0.67-0.52,1.16-0.66   c0.48-0.14,1.1-0.21,1.85-0.21h2.26c0.22,0,0.34,0.11,0.34,0.34v1.53c0,0.22-0.11,0.34-0.34,0.34h-1.81   c-0.61,0-1.02,0.12-1.24,0.36c-0.22,0.24-0.33,0.62-0.33,1.15v0.39h3.26c0.22,0,0.34,0.11,0.34,0.34v1.53   c0,0.22-0.11,0.34-0.34,0.34h-3.26v7.62c0,0.27-0.14,0.41-0.41,0.41h-1.83c-0.27,0-0.41-0.14-0.41-0.41V84.6h-1.79   c-0.22,0-0.34-0.11-0.34-0.34v-1.53c0-0.22,0.11-0.34,0.34-0.34H102.12z"/>		<path class="st5" d="M119.53,82.4c0.83,0,1.53,0.07,2.11,0.21c0.57,0.14,1.03,0.37,1.37,0.67c0.34,0.3,0.59,0.7,0.74,1.17   c0.15,0.48,0.22,1.05,0.22,1.72v2.68c0,0.67-0.07,1.25-0.22,1.72c-0.15,0.48-0.39,0.87-0.74,1.17c-0.34,0.3-0.8,0.53-1.37,0.66   c-0.57,0.14-1.27,0.2-2.11,0.2h-5.28c-0.85,0-1.55-0.07-2.12-0.2c-0.57-0.14-1.02-0.36-1.36-0.66c-0.34-0.3-0.59-0.7-0.74-1.17   c-0.15-0.48-0.22-1.05-0.22-1.72v-2.68c0-0.67,0.07-1.25,0.22-1.72c0.15-0.48,0.39-0.87,0.74-1.17c0.34-0.3,0.8-0.53,1.36-0.67   c0.57-0.14,1.27-0.21,2.12-0.21H119.53z M112.48,88.4c0,0.4,0.03,0.73,0.09,0.99c0.06,0.26,0.17,0.47,0.33,0.62   c0.16,0.16,0.36,0.27,0.62,0.34c0.26,0.07,0.59,0.1,0.99,0.1h4.75c0.41,0,0.75-0.03,1.01-0.1c0.26-0.07,0.47-0.18,0.62-0.34   c0.16-0.16,0.26-0.36,0.33-0.62c0.06-0.26,0.09-0.59,0.09-0.99v-1.77c0-0.38-0.03-0.71-0.09-0.97c-0.06-0.26-0.17-0.47-0.33-0.63   c-0.16-0.16-0.36-0.27-0.62-0.34c-0.26-0.06-0.6-0.09-1.01-0.09h-4.75c-0.4,0-0.73,0.03-0.99,0.09c-0.26,0.06-0.47,0.17-0.62,0.34   c-0.16,0.16-0.26,0.37-0.33,0.63c-0.06,0.26-0.09,0.58-0.09,0.97V88.4z"/>		<path class="st5" d="M135.76,82.4c0.22,0,0.34,0.11,0.34,0.34v1.57c0,0.22-0.11,0.34-0.34,0.34h-4.96c-0.4,0-0.73,0.03-0.99,0.1   c-0.26,0.07-0.47,0.18-0.62,0.34c-0.16,0.16-0.26,0.37-0.33,0.63c-0.06,0.27-0.09,0.59-0.09,0.98v5.54c0,0.27-0.14,0.41-0.41,0.41   h-1.83c-0.29,0-0.43-0.14-0.43-0.41v-6.04c0-0.67,0.07-1.25,0.22-1.72c0.15-0.48,0.39-0.87,0.74-1.17c0.34-0.3,0.8-0.53,1.36-0.67   c0.57-0.14,1.27-0.21,2.12-0.21H135.76z"/>		<path class="st5" d="M151.5,82.4c0.83,0,1.53,0.07,2.1,0.21c0.57,0.14,1.02,0.37,1.37,0.67c0.35,0.3,0.59,0.7,0.74,1.17   c0.14,0.48,0.21,1.05,0.21,1.72v6.04c0,0.27-0.14,0.41-0.41,0.41h-1.83c-0.27,0-0.41-0.14-0.41-0.41v-5.41   c0-0.38-0.03-0.71-0.07-0.98c-0.05-0.27-0.14-0.48-0.28-0.63c-0.14-0.16-0.33-0.27-0.58-0.34c-0.25-0.07-0.58-0.1-0.99-0.1h-3.28   v7.46c0,0.27-0.14,0.41-0.43,0.41h-1.83c-0.27,0-0.41-0.14-0.41-0.41v-7.46h-3.17c-0.4,0-0.73,0.03-0.99,0.1   c-0.26,0.07-0.47,0.18-0.62,0.34c-0.16,0.16-0.26,0.37-0.33,0.63c-0.06,0.27-0.09,0.59-0.09,0.98v5.41c0,0.27-0.14,0.41-0.41,0.41   h-1.83c-0.29,0-0.43-0.14-0.43-0.41v-6.04c0-0.67,0.07-1.25,0.22-1.72c0.15-0.48,0.39-0.87,0.74-1.17c0.34-0.3,0.8-0.53,1.36-0.67   c0.57-0.14,1.27-0.21,2.12-0.21H151.5z"/>		<path class="st5" d="M166.5,82.4c0.83,0,1.53,0.07,2.11,0.21c0.57,0.14,1.03,0.37,1.37,0.67c0.34,0.3,0.59,0.7,0.74,1.17   c0.15,0.48,0.22,1.05,0.22,1.72v4.96c0,0.3-0.02,0.54-0.07,0.74c-0.04,0.19-0.12,0.34-0.22,0.46c-0.11,0.11-0.25,0.19-0.42,0.23   c-0.17,0.04-0.4,0.07-0.67,0.07h-8.87c-0.55,0-1-0.05-1.37-0.16c-0.37-0.11-0.66-0.26-0.89-0.48c-0.22-0.21-0.38-0.48-0.48-0.82   c-0.09-0.34-0.14-0.73-0.14-1.19v-0.89c0-0.39,0.05-0.73,0.14-1.03c0.09-0.3,0.25-0.56,0.48-0.77c0.22-0.21,0.52-0.37,0.89-0.48   c0.37-0.11,0.82-0.16,1.37-0.16h7.59v-0.35c0-0.3-0.03-0.55-0.09-0.76c-0.06-0.21-0.17-0.38-0.32-0.51   c-0.15-0.13-0.35-0.23-0.62-0.29c-0.26-0.06-0.6-0.09-1.01-0.09h-7.79c-0.22,0-0.34-0.11-0.34-0.34v-1.57   c0-0.22,0.11-0.34,0.34-0.34H166.5z M167.73,90.58c0.2,0,0.34-0.05,0.42-0.14c0.08-0.09,0.12-0.26,0.12-0.49v-1.64h-6.82   c-0.39,0-0.66,0.08-0.81,0.23c-0.16,0.16-0.23,0.38-0.23,0.68v0.39c0,0.34,0.08,0.58,0.23,0.74c0.16,0.16,0.43,0.23,0.81,0.23   H167.73z M166.78,77.42c0.14,0,0.24,0.04,0.3,0.11c0.06,0.07,0.06,0.18-0.02,0.32l-1.92,3.45c-0.07,0.14-0.15,0.24-0.23,0.32   c-0.08,0.07-0.19,0.11-0.33,0.11h-1.42c-0.14,0-0.24-0.04-0.3-0.11c-0.06-0.07-0.06-0.18,0-0.32l1.7-3.45   c0.14-0.29,0.33-0.43,0.58-0.43H166.78z"/>		<path class="st5" d="M174.18,82.4v-2.46c0-0.27,0.14-0.41,0.41-0.41h1.85c0.27,0,0.41,0.14,0.41,0.41v2.46h3.26   c0.22,0,0.34,0.11,0.34,0.34v1.53c0,0.22-0.11,0.34-0.34,0.34h-3.26v4.32c0,0.52,0.11,0.9,0.32,1.15   c0.21,0.24,0.63,0.36,1.25,0.36h1.81c0.22,0,0.34,0.11,0.34,0.34v1.53c0,0.22-0.11,0.34-0.34,0.34h-2.26   c-0.75,0-1.36-0.07-1.85-0.2c-0.48-0.14-0.87-0.35-1.17-0.65c-0.29-0.3-0.49-0.68-0.61-1.16c-0.11-0.47-0.17-1.04-0.17-1.7V84.6   h-1.77c-0.22,0-0.34-0.11-0.34-0.34v-1.53c0-0.22,0.11-0.34,0.34-0.34H174.18z"/>		<path class="st5" d="M184.32,78.61c0.27,0,0.41,0.14,0.41,0.41v1.77c0,0.29-0.14,0.43-0.41,0.43h-1.83   c-0.29,0-0.43-0.14-0.43-0.43v-1.77c0-0.27,0.14-0.41,0.43-0.41H184.32z M184.32,82.4c0.27,0,0.41,0.14,0.41,0.43v9.39   c0,0.27-0.14,0.41-0.41,0.41h-1.83c-0.27,0-0.41-0.14-0.41-0.41v-9.39c0-0.29,0.14-0.43,0.41-0.43H184.32z"/>		<path class="st5" d="M198.58,82.4c0.22,0,0.34,0.11,0.34,0.34v1.57c0,0.22-0.11,0.34-0.34,0.34h-7.23c-0.41,0-0.75,0.03-1.01,0.1   c-0.26,0.07-0.47,0.18-0.62,0.34c-0.15,0.16-0.25,0.37-0.32,0.63c-0.06,0.27-0.09,0.59-0.09,0.98v1.66c0,0.4,0.03,0.73,0.09,0.99   c0.06,0.26,0.17,0.47,0.32,0.62c0.15,0.16,0.35,0.27,0.62,0.34c0.26,0.07,0.6,0.1,1.01,0.1h7.23c0.22,0,0.34,0.11,0.34,0.34v1.57   c0,0.22-0.11,0.34-0.34,0.34h-7.49c-0.85,0-1.55-0.07-2.12-0.2c-0.57-0.14-1.02-0.36-1.36-0.66c-0.34-0.3-0.59-0.7-0.74-1.17   c-0.15-0.48-0.22-1.05-0.22-1.72v-2.68c0-0.67,0.07-1.25,0.22-1.72c0.15-0.48,0.39-0.87,0.74-1.17c0.34-0.3,0.8-0.53,1.36-0.67   c0.57-0.14,1.27-0.21,2.12-0.21H198.58z"/>		<path class="st5" d="M208.96,82.4c0.83,0,1.53,0.07,2.11,0.21c0.57,0.14,1.03,0.37,1.37,0.67c0.34,0.3,0.59,0.7,0.74,1.17   c0.15,0.48,0.22,1.05,0.22,1.72v4.96c0,0.3-0.02,0.54-0.07,0.74c-0.04,0.19-0.12,0.34-0.22,0.46c-0.11,0.11-0.25,0.19-0.42,0.23   c-0.17,0.04-0.4,0.07-0.67,0.07h-8.87c-0.55,0-1-0.05-1.37-0.16c-0.37-0.11-0.66-0.26-0.89-0.48c-0.22-0.21-0.38-0.48-0.48-0.82   c-0.09-0.34-0.14-0.73-0.14-1.19v-0.89c0-0.39,0.05-0.73,0.14-1.03c0.09-0.3,0.25-0.56,0.48-0.77c0.22-0.21,0.52-0.37,0.89-0.48   c0.37-0.11,0.82-0.16,1.37-0.16h7.59v-0.35c0-0.3-0.03-0.55-0.09-0.76c-0.06-0.21-0.17-0.38-0.32-0.51   c-0.15-0.13-0.35-0.23-0.62-0.29c-0.26-0.06-0.6-0.09-1.01-0.09h-7.79c-0.22,0-0.34-0.11-0.34-0.34v-1.57   c0-0.22,0.11-0.34,0.34-0.34H208.96z M210.19,90.58c0.2,0,0.34-0.05,0.42-0.14c0.08-0.09,0.12-0.26,0.12-0.49v-1.64h-6.82   c-0.39,0-0.66,0.08-0.81,0.23c-0.16,0.16-0.23,0.38-0.23,0.68v0.39c0,0.34,0.08,0.58,0.23,0.74c0.16,0.16,0.43,0.23,0.81,0.23   H210.19z"/>		<path class="st5" d="M227.19,82.4c0.22,0,0.34,0.11,0.34,0.34v1.49c0,0.22-0.11,0.34-0.34,0.34h-8.41c-0.39,0-0.65,0.07-0.8,0.21   c-0.15,0.14-0.22,0.35-0.22,0.62v0.28c0,0.25,0.07,0.44,0.22,0.59c0.15,0.14,0.42,0.21,0.8,0.21h6.28c1.04,0,1.79,0.22,2.24,0.65   c0.45,0.44,0.67,1.05,0.67,1.85v1.04c0,0.41-0.05,0.78-0.15,1.1c-0.1,0.32-0.26,0.6-0.49,0.82c-0.23,0.22-0.53,0.39-0.9,0.51   c-0.37,0.12-0.83,0.18-1.38,0.18h-9.54c-0.22,0-0.34-0.11-0.34-0.34V90.8c0-0.22,0.11-0.34,0.34-0.34h8.84   c0.39,0,0.66-0.07,0.81-0.2c0.16-0.14,0.23-0.37,0.23-0.69v-0.5c0-0.25-0.08-0.44-0.23-0.58c-0.16-0.14-0.43-0.21-0.81-0.21h-6.26   c-1.04,0-1.79-0.21-2.24-0.64c-0.45-0.43-0.67-1.05-0.67-1.87v-0.82c0-0.39,0.05-0.74,0.15-1.05c0.1-0.32,0.26-0.59,0.49-0.81   c0.23-0.22,0.53-0.39,0.9-0.51c0.37-0.12,0.83-0.18,1.38-0.18H227.19z"/>		<path class="st5" d="M239.98,79.58c0.27,0,0.51,0.02,0.71,0.06c0.2,0.04,0.37,0.11,0.52,0.21c0.15,0.11,0.28,0.25,0.4,0.43   c0.12,0.18,0.24,0.42,0.36,0.72l3.88,8.95c0.05,0.11,0.14,0.17,0.26,0.17h0.22c0.12,0,0.21-0.06,0.26-0.17l3.88-8.95   c0.12-0.3,0.25-0.54,0.36-0.72c0.12-0.18,0.25-0.32,0.4-0.43c0.15-0.11,0.32-0.18,0.51-0.21c0.19-0.04,0.43-0.06,0.7-0.06h1.99   c0.65,0,1.08,0.15,1.3,0.44c0.22,0.29,0.34,0.79,0.34,1.5v10.7c0,0.27-0.14,0.41-0.43,0.41h-1.9c-0.27,0-0.41-0.14-0.41-0.41   v-9.73c0-0.12-0.05-0.19-0.15-0.19h-0.17c-0.12,0-0.2,0.05-0.24,0.15l-3.77,8.35c-0.15,0.34-0.3,0.62-0.46,0.85   c-0.16,0.23-0.32,0.42-0.5,0.57c-0.18,0.15-0.39,0.25-0.62,0.32c-0.23,0.06-0.5,0.09-0.81,0.09h-0.89c-0.31,0-0.58-0.03-0.81-0.09   c-0.23-0.06-0.44-0.17-0.62-0.32c-0.18-0.15-0.35-0.34-0.5-0.57c-0.16-0.23-0.31-0.51-0.46-0.85l-3.77-8.35   c-0.04-0.1-0.12-0.15-0.24-0.15h-0.17c-0.1,0-0.15,0.06-0.15,0.19v9.73c0,0.27-0.14,0.41-0.41,0.41h-1.9   c-0.29,0-0.43-0.14-0.43-0.41v-10.7c0-0.71,0.11-1.21,0.34-1.5c0.22-0.29,0.66-0.44,1.32-0.44H239.98z"/>		<path class="st5" d="M270.25,79.58c0.27,0,0.41,0.14,0.41,0.41v7.72c0,0.89-0.09,1.66-0.28,2.28c-0.19,0.63-0.49,1.14-0.9,1.53   c-0.42,0.39-0.96,0.67-1.62,0.85c-0.67,0.17-1.47,0.26-2.41,0.26h-7.27c-0.29,0-0.43-0.14-0.43-0.41v-1.83   c0-0.27,0.14-0.41,0.43-0.41h7.18c0.48,0,0.89-0.04,1.2-0.12c0.32-0.08,0.57-0.22,0.75-0.41c0.19-0.19,0.32-0.45,0.39-0.78   c0.07-0.33,0.11-0.74,0.11-1.24v-7.44c0-0.27,0.14-0.41,0.43-0.41H270.25z"/>	</g></g></svg>